<?xml version="1.0" standalone="yes"?>
<svg xmlns="http://www.w3.org/2000/svg" width="474" height="255">
<path style="fill:#0909ee; stroke:none;" d="M0 0L0 136L161 136L200 136L213.972 134.258L215 124L215 99L215 0L0 0z"/>
<path style="fill:#1b1795; stroke:none;" d="M215 0L215 97C215 105.562 218.85 126.479 213.972 133.566C211.371 137.346 203.921 136 200 136L161 136L0 136L0 137L216 137C216 106.711 215.073 76.2385 216.035 46C216.438 33.3682 219.869 11.6039 215 0z"/>
<path style="fill:#f40a0b; stroke:none;" d="M216 0L217.028 17.2577L233 19L277 19L474 19L474 0L216 0z"/>
<path style="fill:#1b1795; stroke:none;" d="M15 8L16 9L15 8M52 8L53 9L52 8M89 8L88 12L89 12L89 8M126 8L120 13L120 14L125 14L126 8M162 8L157 16L158 16L162 14L164 8L162 8M200 8L199 10L200 8z"/>
<path style="fill:#9373d2; stroke:none;" d="M15.3333 9.66667L15.6667 10.3333L15.3333 9.66667M52 9L53 10L52 9M89 9L90 10L89 9M126 9L127 10L126 9M163 9L164 10L163 9M200 9L199 13L200 13L200 9z"/>
<path style="fill:#1b1795; stroke:none;" d="M13 10L9 13L9 14L15 10L13 10M51 10L46 13L46 14C48.9435 13.7675 51.5071 13.3922 51 10z"/>
<path style="fill:#faf5f6; stroke:none;" d="M52 10L51 15L47 14L47 15L51 17L49 22L56 21L58 15L58 14L54 15L52 10M89 10L88 15L84 14L84 15L88 17L86 21L92 22L93 22C92.3184 18.5799 92.1735 17.1864 95 15L95 14L91 15L89 10M126 10L122 14L123 22L124 22L130 21L132 15L132 14L128 15L126 10z"/>
<path style="fill:#1b1795; stroke:none;" d="M127 10C128.099 13.3213 129.59 13.7375 133 14L133 13L127 10z"/>
<path style="fill:#faf5f6; stroke:none;" d="M163 10L162 15L158 14L158 15L160 22L161 22C163.108 20.1006 163.954 20.0022 166 22L167 22C166.318 18.5799 166.173 17.1864 169 15L169 14L165 15L163 10M15 11L14 15L10 14L10 15L14 17L12 22L13 22L14 19L19 21L21 15L21 14L17 15L15 11z"/>
<path style="fill:#1b1795; stroke:none;" d="M16 11L17 12L16 11M53 11L59 14L59 13L53 11M90 11L95 14L95 13L90 11z"/>
<path style="fill:#9373d2; stroke:none;" d="M125 11L125 14L126 14L125 11M162 11L162 14L163 14L162 11z"/>
<path style="fill:#1b1795; stroke:none;" d="M198 11L193 14L196 21L197 21L198 17L194 15L194 14C196.45 13.8795 199.095 13.9051 198 11z"/>
<path style="fill:#faf5f6; stroke:none;" d="M200 11L199 15L195 14L195 15L197 21L204 22C203.124 18.5557 203.121 17.1911 206 15L206 14L202 15L200 11z"/>
<path style="fill:#1b1795; stroke:none;" d="M201 11L207 14L207 13L201 11z"/>
<path style="fill:#9373d2; stroke:none;" d="M14.3333 12.6667L14.6667 13.3333L14.3333 12.6667M16 12L18 15L16 12M51.3333 12.6667L51.6667 13.3333L51.3333 12.6667M53.3333 12.6667L53.6667 13.3333L53.3333 12.6667z"/>
<path style="fill:#1b1795; stroke:none;" d="M85 12L83 13L83 14L85 12z"/>
<path style="fill:#9373d2; stroke:none;" d="M88 12L86 14L86 15L88 12z"/>
<path style="fill:#1b1795; stroke:none;" d="M164 12L164 13L170 14L170 13L164 12M17 13L17 14L22 14L22 15C19.2531 16.5336 18.1362 17.9814 21 20L23 14L17 13M87 13L88 14L87 13z"/>
<path style="fill:#9373d2; stroke:none;" d="M90 13L91 14L90 13M95.3333 13.6667L95.6667 14.3333L95.3333 13.6667M127 13L128 14L127 13M164 13L165 14L164 13M201 13L202 14L201 13M9 14L10 15L9 14M12.6667 14.3333L13.3333 14.6667L12.6667 14.3333M21 14L22 15L21 14M46 14L47 15L46 14M49.6667 14.3333L50.3333 14.6667L49.6667 14.3333M54 14L55 15L54 14M58 14L59 15L58 14z"/>
<path style="fill:#1b1795; stroke:none;" d="M80 14L81 15L80 14z"/>
<path style="fill:#9373d2; stroke:none;" d="M83 14L85 16L83 14M91 14L92 15L91 14M120 14L122 16L122 14L120 14M123.667 14.3333L124.333 14.6667L123.667 14.3333M128 14L129 15L128 14M132 14L133 15L132 14M157 14L158 15L157 14M160.667 14.3333L161.333 14.6667L160.667 14.3333M165 14L166 15L165 14M169 14L170 15L169 14M194 14L195 15L194 14M197.667 14.3333L198.333 14.6667L197.667 14.3333M202 14L203 15L202 14M206 14L207 15L206 14M10 15L11 16L10 15M19 15L20 16L19 15M47 15L48 16L47 15M56 15L54 18L56 15z"/>
<path style="fill:#1b1795; stroke:none;" d="M57 15L58 16L57 15M83 15L84 16L83 15z"/>
<path style="fill:#9373d2; stroke:none;" d="M93 15L91 18L93 15z"/>
<path style="fill:#1b1795; stroke:none;" d="M94 15L95 16L94 15z"/>
<path style="fill:#9373d2; stroke:none;" d="M130 15L128 18L130 15z"/>
<path style="fill:#1b1795; stroke:none;" d="M131 15L132 16L131 15z"/>
<path style="fill:#9373d2; stroke:none;" d="M158 15L159 16L158 15M167 15L168 16L167 15z"/>
<path style="fill:#1b1795; stroke:none;" d="M168.667 15.3333L169.333 15.6667L168.667 15.3333z"/>
<path style="fill:#9373d2; stroke:none;" d="M195 15L196 16L195 15M204 15L205 16L204 15z"/>
<path style="fill:#1b1795; stroke:none;" d="M205 15L206 16L205 15M11 16L13 19L11 16z"/>
<path style="fill:#9373d2; stroke:none;" d="M12 16L13 17L12 16M18 16L19 17L18 16z"/>
<path style="fill:#1b1795; stroke:none;" d="M48 16L48 20L49 20L48 16z"/>
<path style="fill:#9373d2; stroke:none;" d="M49 16L50 17L49 16z"/>
<path style="fill:#1b1795; stroke:none;" d="M56 16L55 19L56 16M84 16L87 19L84 16z"/>
<path style="fill:#9373d2; stroke:none;" d="M86 16L87 17L86 16z"/>
<path style="fill:#1b1795; stroke:none;" d="M93 16L94 17L93 16M122 16L122 21L123 21L122 16z"/>
<path style="fill:#9373d2; stroke:none;" d="M123 16L124 17L123 16z"/>
<path style="fill:#1b1795; stroke:none;" d="M130 16L130 21L131 21L130 16M159 16L160 19L161 19L159 16z"/>
<path style="fill:#9373d2; stroke:none;" d="M160 16L161 17L160 16M166 16L165 18L166 16M197 16L198 17L197 16z"/>
<path style="fill:#1b1795; stroke:none;" d="M203 16L203 19L204 19L205 16L203 16z"/>
<path style="fill:#9373d2; stroke:none;" d="M13 17L14 18L13 17M17 17L18 18L17 17M50 17L51 18L50 17M87 17L88 18L87 17z"/>
<path style="fill:#1b1795; stroke:none;" d="M92 17L92 19L94 19L92 17M166.333 17.6667L166.667 18.3333L166.333 17.6667z"/>
<path style="fill:#9373d2; stroke:none;" d="M202 17L203 18L202 17z"/>
<path style="fill:#1b1795; stroke:none;" d="M206 18L207 19L206 18z"/>
<path style="fill:#9373d2; stroke:none;" d="M216.667 18.3333L217.333 18.6667L216.667 18.3333M12.3333 19.6667L12.6667 20.3333L12.3333 19.6667M14 19L15 20L14 19z"/>
<path style="fill:#1b1795; stroke:none;" d="M15 19L13 22L19 23L15 19z"/>
<path style="fill:#9373d2; stroke:none;" d="M16 19L17 20L16 19M18 19L19 20L18 19M49 19L50 20L49 19z"/>
<path style="fill:#1b1795; stroke:none;" d="M51 20L55 22L53 19L51 20z"/>
<path style="fill:#9373d2; stroke:none;" d="M53 19L54 20L53 19M55 19L56 20L55 19M86 19L87 20L86 19M88 19L85 23L88 19z"/>
<path style="fill:#1b1795; stroke:none;" d="M89 19L87 22L91 22L89 19z"/>
<path style="fill:#9373d2; stroke:none;" d="M92 19L93 20L92 19M123 19L124 20L123 19z"/>
<path style="fill:#1b1795; stroke:none;" d="M126 19L124 23L130 23L126 19z"/>
<path style="fill:#9373d2; stroke:none;" d="M129 19L130 20L129 19M160 19L161 20L160 19z"/>
<path style="fill:#1b1795; stroke:none;" d="M163 19L160 23L166 22L163 19z"/>
<path style="fill:#9373d2; stroke:none;" d="M166 19L167 20L166 19M197 19L198 20L197 19M199 19L196 23L199 19z"/>
<path style="fill:#1b1795; stroke:none;" d="M199 20L203 22L201 19L199 20z"/>
<path style="fill:#9373d2; stroke:none;" d="M203.333 19.6667L203.667 20.3333L203.333 19.6667z"/>
<path style="fill:#faf5f6; stroke:none;" d="M216 19L216 39L474 39L474 19L216 19z"/>
<path style="fill:#1b1795; stroke:none;" d="M11 20L12 21L11 20z"/>
<path style="fill:#9373d2; stroke:none;" d="M54 20L55 21L54 20z"/>
<path style="fill:#1b1795; stroke:none;" d="M56 20L57 21L56 20z"/>
<path style="fill:#9373d2; stroke:none;" d="M91 20L92 21L91 20M124 20L125 21L124 20M128 20L129 21L128 20M161 20L162 21L161 20M165 20L166 21L165 20z"/>
<path style="fill:#1b1795; stroke:none;" d="M204 20L203 23L204 20z"/>
<path style="fill:#9373d2; stroke:none;" d="M18 21L20 23L20 21L18 21z"/>
<path style="fill:#1b1795; stroke:none;" d="M48 21L50 23L48 21M50 21L51 22L50 21z"/>
<path style="fill:#9373d2; stroke:none;" d="M55 21L57 23L57 21L55 21M93.3333 21.6667L93.6667 22.3333L93.3333 21.6667M122.333 21.6667L122.667 22.3333L122.333 21.6667M129 21L131 23L131 21L129 21M159.333 21.6667L159.667 22.3333L159.333 21.6667z"/>
<path style="fill:#1b1795; stroke:none;" d="M167 21L168 22L167 21M198 21L199 22L198 21z"/>
<path style="fill:#9373d2; stroke:none;" d="M11 22L12 23L11 22M48 22L49 23L48 22z"/>
<path style="fill:#1b1795; stroke:none;" d="M86 22L87 23L86 22M92 22L93 23L92 22z"/>
<path style="fill:#9373d2; stroke:none;" d="M167 22L168 23L167 22z"/>
<path style="fill:#1b1795; stroke:none;" d="M181 22L182 23L181 22M197 22L198 23L197 22z"/>
<path style="fill:#9373d2; stroke:none;" d="M204 22L205 23L204 22z"/>
<path style="fill:#1b1795; stroke:none;" d="M33.6667 23.3333L34.3333 23.6667L33.6667 23.3333M70.6667 23.3333L71.3333 23.6667L70.6667 23.3333M104 29L109 25L109 24L104 29z"/>
<path style="fill:#9373d2; stroke:none;" d="M144 23L145 28L146 28L144 23z"/>
<path style="fill:#1b1795; stroke:none;" d="M145.333 23.6667L145.667 24.3333L145.333 23.6667z"/>
<path style="fill:#9373d2; stroke:none;" d="M181.333 23.6667L181.667 24.3333L181.333 23.6667M33 24L35 27L35 24L33 24M70 24L72 27L72 24L70 24M107 24L108 27L109 27L107 24z"/>
<path style="fill:#1b1795; stroke:none;" d="M182 24L183 29L186 28L182 24M32 25L30 29C32.6489 28.4324 33.3548 27.4122 32 25z"/>
<path style="fill:#faf5f6; stroke:none;" d="M107 25L107 29L103 29L103 30L105 36L106 36L111 36L113 30L113 29L107 25M144 25L144 29L140 29L140 30L143 31L142 36L143 36L144 33L148 36L150 30L150 29L144 25z"/>
<path style="fill:#1b1795; stroke:none;" d="M180 25L178 29L180 25z"/>
<path style="fill:#faf5f6; stroke:none;" d="M181 25L181 29L177 29L177 30L180 31L178 36L185 36L187 30L187 29L182 29L181 25M33 26L29 29L29 30L31 36L34 33L37 35L36 31L39 30L39 29L33 26z"/>
<path style="fill:#1b1795; stroke:none;" d="M35 26L38 29L37 26L35 26M69 26L66 28L66 29L69 26z"/>
<path style="fill:#faf5f6; stroke:none;" d="M70 26L66 29L66 30L68 36L72 33L73 36L74 36L76 30L76 29L70 26z"/>
<path style="fill:#1b1795; stroke:none;" d="M72 26L75 29L72 26M109 26L109 29L111 28L111 27L109 26M143 26L140 28L140 29L143 26M146 26C146.513 28.4751 146.604 28.5746 149 28L146 26z"/>
<path style="fill:#9373d2; stroke:none;" d="M182 26L182 29L183 29L182 26M180.333 27.6667L180.667 28.3333L180.333 27.6667M27 28L28 30L29 30L30 28L27 28M38 28L40 30L40 28L38 28z"/>
<path style="fill:#1b1795; stroke:none;" d="M40 28L41 29L40 28z"/>
<path style="fill:#9373d2; stroke:none;" d="M64 28L66 30L66 28L64 28M69 28L70 29L69 28M72.6667 28.3333L73.3333 28.6667L72.6667 28.3333M75 28L76 30L77 30L78 28L75 28M101 28L102 30L103 30L104 28L101 28M106 28L107 29L106 28M110 28L110 29L115 29L110 28M138 28L140 30L140 28L138 28M143 28L144 29L143 28M148 28L148 29L151 29L148 28z"/>
<path style="fill:#1b1795; stroke:none;" d="M151 28L152 29L151 28M175.333 28.6667L175.667 29.3333L175.333 28.6667z"/>
<path style="fill:#9373d2; stroke:none;" d="M176 28L176 30L178 28L176 28M185 28L185 29L189 29L185 28z"/>
<path style="fill:#1b1795; stroke:none;" d="M138 29L139 30L138 29M150 29L151 30L150 29M187 29L188 30L187 29M28 30L28 31L32 33L28 30z"/>
<path style="fill:#9373d2; stroke:none;" d="M30 30L31 31L30 30M37 30L36 33L37 33L37 30z"/>
<path style="fill:#1b1795; stroke:none;" d="M38 30L38 37L39 37L40 31L38 30M66 30L67 35L68 35L66 30z"/>
<path style="fill:#9373d2; stroke:none;" d="M67 30L68 31L67 30M74 30L73 34L74 34L74 30z"/>
<path style="fill:#1b1795; stroke:none;" d="M75 30L74 35L75 35L75 30M103 30L104 35L105 35L103 30z"/>
<path style="fill:#9373d2; stroke:none;" d="M104 30L105 31L104 30M111 30L110 32L111 30z"/>
<path style="fill:#1b1795; stroke:none;" d="M112 30L113 31L112 30z"/>
<path style="fill:#9373d2; stroke:none;" d="M140 30L141 31L140 30M148 30L147 32L148 30M177 30L178 31L177 30M185 30L186 31L185 30M31 31L32 32L31 31M68 31L69 32L68 31M105 31L105 34L106 34L105 31z"/>
<path style="fill:#1b1795; stroke:none;" d="M111 31L111 35L112 35L111 31M140 31L140 34C142.006 32.8734 142.006 32.1266 140 31z"/>
<path style="fill:#9373d2; stroke:none;" d="M142.333 31.6667L142.667 32.3333L142.333 31.6667z"/>
<path style="fill:#1b1795; stroke:none;" d="M148 31L147 33L149 33L148 31M177 31L179 34L179 31L177 31z"/>
<path style="fill:#9373d2; stroke:none;" d="M179.333 31.6667L179.667 32.3333L179.333 31.6667z"/>
<path style="fill:#1b1795; stroke:none;" d="M184 31L184 33L186 33L186 31L184 31z"/>
<path style="fill:#9373d2; stroke:none;" d="M31 33L32 34L31 33M34 33L35 34L34 33M68 33L69 34L68 33M71 33L73 35L71 33M110 33L111 34L110 33M144 33L143 35L144 33M147 33L148 34L147 33M184 33L185 34L184 33M15.3333 34.6667L15.6667 35.3333L15.3333 34.6667z"/>
<path style="fill:#1b1795; stroke:none;" d="M30 34L31 35L30 34M32 35L32 36L36 36L32 35z"/>
<path style="fill:#9373d2; stroke:none;" d="M37 34L38 37L37 34M52.3333 34.6667L52.6667 35.3333L52.3333 34.6667z"/>
<path style="fill:#1b1795; stroke:none;" d="M66 37L66 38L73 36L66 37z"/>
<path style="fill:#9373d2; stroke:none;" d="M89 34L88 40L89 40L89 34M106 34L107 35L106 34z"/>
<path style="fill:#1b1795; stroke:none;" d="M106 35L106 36L110 36L106 35z"/>
<path style="fill:#9373d2; stroke:none;" d="M126.333 34.6667L126.667 35.3333L126.333 34.6667M141 34L141 37L142 37L141 34z"/>
<path style="fill:#1b1795; stroke:none;" d="M142 37L147 35L142 37M162.333 34.6667L162.667 35.3333L162.333 34.6667z"/>
<path style="fill:#9373d2; stroke:none;" d="M163 34L162 39L163 39L163 34M178 34L179 35L178 34M180 34L179 36L180 34z"/>
<path style="fill:#1b1795; stroke:none;" d="M180 37L184 35L180 37M200 34L199 36L200 34M14 35L11 40C13.7572 39.1951 14.8198 37.8299 14 35z"/>
<path style="fill:#9373d2; stroke:none;" d="M30 35L30 37L32 37L30 35z"/>
<path style="fill:#1b1795; stroke:none;" d="M53 35L56 40L53 35z"/>
<path style="fill:#9373d2; stroke:none;" d="M67.3333 35.6667L67.6667 36.3333L67.3333 35.6667M74.3333 35.6667L74.6667 36.3333L74.3333 35.6667z"/>
<path style="fill:#1b1795; stroke:none;" d="M88 35L89 36L88 35M90 35L93 40L90 35z"/>
<path style="fill:#9373d2; stroke:none;" d="M104.333 35.6667L104.667 36.3333L104.333 35.6667M111.333 35.6667L111.667 36.3333L111.333 35.6667z"/>
<path style="fill:#1b1795; stroke:none;" d="M125 35L123 40L125 35M127 35L130 40L127 35z"/>
<path style="fill:#9373d2; stroke:none;" d="M148.333 35.6667L148.667 36.3333L148.333 35.6667M185.333 35.6667L185.667 36.3333L185.333 35.6667M200 35L199 39L200 39L200 35z"/>
<path style="fill:#faf5f6; stroke:none;" d="M15 36L15 40L10 40L10 41L14 42L12 47L15 44L16 44L19 47L20 40L16 40L15 36z"/>
<path style="fill:#1b1795; stroke:none;" d="M16 36L17 37L16 36M51 36L52 37L51 36z"/>
<path style="fill:#faf5f6; stroke:none;" d="M52 36L52 40L47 40L47 41L49 47L52 44L53 44L56 47L57 40L53 40L52 36z"/>
<path style="fill:#1b1795; stroke:none;" d="M75 36L76 37L75 36z"/>
<path style="fill:#faf5f6; stroke:none;" d="M89 36L89 40L84 40L84 41L86 47L89 44L90 44L93 47L94 40L90 40L89 36z"/>
<path style="fill:#1b1795; stroke:none;" d="M103 36L104 37L103 36M105 36L106 37L105 36M110 36L111 37L110 36z"/>
<path style="fill:#faf5f6; stroke:none;" d="M126 36L121 40L121 41L123 47L126 44L127 44L130 47L131 40L127 40L126 36z"/>
<path style="fill:#1b1795; stroke:none;" d="M140 36L141 37L140 36M147 36L148 37L147 36z"/>
<path style="fill:#faf5f6; stroke:none;" d="M163 36L158 40L158 41L160 47L163 44L164 44L167 47L165 42L168 41L168 40L164 40L163 36z"/>
<path style="fill:#1b1795; stroke:none;" d="M164 36L165 40L169 39L169 38L164 36z"/>
<path style="fill:#9373d2; stroke:none;" d="M178 36L179 37L178 36z"/>
<path style="fill:#1b1795; stroke:none;" d="M184 36L185 37L184 36z"/>
<path style="fill:#faf5f6; stroke:none;" d="M200 36L195 40L195 41L197 47L200 44L201 44L204 47L202 42L205 41L205 40L201 40L200 36z"/>
<path style="fill:#9373d2; stroke:none;" d="M14 37L14 40L15 40L14 37M16 37L16 40L17 40L16 37z"/>
<path style="fill:#1b1795; stroke:none;" d="M30 37L31 38L30 37z"/>
<path style="fill:#9373d2; stroke:none;" d="M51 37L51 40L52 40L51 37z"/>
<path style="fill:#1b1795; stroke:none;" d="M104 37L105 38L104 37M111 37L112 38L111 37z"/>
<path style="fill:#9373d2; stroke:none;" d="M125.333 37.6667L125.667 38.3333L125.333 37.6667z"/>
<path style="fill:#1b1795; stroke:none;" d="M149 37L150 38L149 37M161 37L159 40C161.251 39.5267 162.118 39.1397 161 37M185 37L186 38L185 37M198 37L196 39L196 40C198.251 39.5267 199.118 39.1397 198 37M201 37L202 40L206 39L206 38L201 37M17 40L20 38L17 40M50 38L48 39L48 40L50 38z"/>
<path style="fill:#9373d2; stroke:none;" d="M53.3333 38.6667L53.6667 39.3333L53.3333 38.6667M90.3333 38.6667L90.6667 39.3333L90.3333 38.6667M127.333 38.6667L127.667 39.3333L127.333 38.6667z"/>
<path style="fill:#1b1795; stroke:none;" d="M150 38L151 39L150 38z"/>
<path style="fill:#9373d2; stroke:none;" d="M164.333 38.6667L164.667 39.3333L164.333 38.6667z"/>
<path style="fill:#1b1795; stroke:none;" d="M194 38L193 40L194 38z"/>
<path style="fill:#9373d2; stroke:none;" d="M201.333 38.6667L201.667 39.3333L201.333 38.6667z"/>
<path style="fill:#1b1795; stroke:none;" d="M8 39L11 46L12 46L13 42L8 39z"/>
<path style="fill:#9373d2; stroke:none;" d="M9.66667 39.3333L10.3333 39.6667L9.66667 39.3333M19 39L19 42L22 39L19 39z"/>
<path style="fill:#1b1795; stroke:none;" d="M45.6667 39.3333L46.3333 39.6667L45.6667 39.3333z"/>
<path style="fill:#9373d2; stroke:none;" d="M47 39L48 40L47 39M56 39L56 42L59 39L56 39z"/>
<path style="fill:#1b1795; stroke:none;" d="M59 39L60 40L59 39M82 39L83 40L82 39z"/>
<path style="fill:#9373d2; stroke:none;" d="M83 39L83 41L85 39L83 39z"/>
<path style="fill:#1b1795; stroke:none;" d="M85 39L85 40L88 40L85 39z"/>
<path style="fill:#9373d2; stroke:none;" d="M93 39L93 42L96 39L93 39M120.333 39.6667L120.667 40.3333L120.333 39.6667z"/>
<path style="fill:#1b1795; stroke:none;" d="M121 39L122 40L121 39z"/>
<path style="fill:#9373d2; stroke:none;" d="M122 39L123 40L122 39M130 39L131 41L132 41L133 39L130 39z"/>
<path style="fill:#1b1795; stroke:none;" d="M156 39L157 40L156 39z"/>
<path style="fill:#9373d2; stroke:none;" d="M157 39L157 41L159 39L157 39M167 42L170 39L167 42M194 39L194 41L196 39L194 39M203 39L203 40L204 42L207 39L203 39M216 39L216 40L474 40L450 39L398 39L216 39z"/>
<path style="fill:#1b1795; stroke:none;" d="M21 40L22 41L21 40z"/>
<path style="fill:#9373d2; stroke:none;" d="M46 40L47 41L46 40z"/>
<path style="fill:#1b1795; stroke:none;" d="M58 40L59 41L58 40M95 40L96 41L95 40M169 40L170 41L169 40M206 40L207 41L206 40z"/>
<path style="fill:#f40a0b; stroke:none;" d="M474 58L474 40L277 40L231 40C226.509 40 217.175 38.0326 216.148 44.0586C215.628 47.1108 214.884 54.818 217.603 56.9722C220.85 59.5438 229.071 58 233 58L275 58L474 58z"/>
<path style="fill:#9373d2; stroke:none;" d="M11 41L12 42L11 41z"/>
<path style="fill:#1b1795; stroke:none;" d="M20 41L21 42L20 41M47 41L49 45L50 45L47 41z"/>
<path style="fill:#9373d2; stroke:none;" d="M48 41L49 42L48 41z"/>
<path style="fill:#1b1795; stroke:none;" d="M57 41L58 42L57 41M84 41L85 47C86.5577 44.2854 86.4964 42.9092 84 41z"/>
<path style="fill:#9373d2; stroke:none;" d="M85 41L86 42L85 41z"/>
<path style="fill:#1b1795; stroke:none;" d="M94 41L95 42L94 41M121 41L124 45L121 41z"/>
<path style="fill:#9373d2; stroke:none;" d="M122 41L123 42L122 41M130 41L131 42L130 41z"/>
<path style="fill:#1b1795; stroke:none;" d="M158 41L161 45L158 41z"/>
<path style="fill:#9373d2; stroke:none;" d="M159 41L160 42L159 41z"/>
<path style="fill:#1b1795; stroke:none;" d="M168 41L169 42L168 41M194 41L194 42L197 43L196 47L198 42L194 41z"/>
<path style="fill:#9373d2; stroke:none;" d="M196 41L197 42L196 41z"/>
<path style="fill:#1b1795; stroke:none;" d="M205 41L206 42L205 41z"/>
<path style="fill:#9373d2; stroke:none;" d="M13.3333 42.6667L13.6667 43.3333L13.3333 42.6667z"/>
<path style="fill:#1b1795; stroke:none;" d="M18 42L18 44L20 44L20 42L18 42M55 42L55 44L57 42L55 42M92 42L94 47L92 42M129 42L129 45L131 45L131 42L129 42z"/>
<path style="fill:#9373d2; stroke:none;" d="M160 42L161 43L160 42M165 42L166 43L165 42z"/>
<path style="fill:#1b1795; stroke:none;" d="M166 42L166 45L168 45L168 42L166 42z"/>
<path style="fill:#9373d2; stroke:none;" d="M202.333 42.6667L202.667 43.3333L202.333 42.6667z"/>
<path style="fill:#1b1795; stroke:none;" d="M203 42L203 45L204 45L205 42L203 42z"/>
<path style="fill:#9373d2; stroke:none;" d="M54 43L55 44L54 43M124 43L125 44L124 43M128 43L129 44L128 43M161 43L162 44L161 43M15 44L11 47L11 48L15 45L16 45L20 48L20 47L15 44M18.3333 44.6667L18.6667 45.3333L18.3333 44.6667M52 44L50 47L52 45L53 45L55 47L52 44M55.3333 44.6667L55.6667 45.3333L55.3333 44.6667M86.3333 44.6667L86.6667 45.3333L86.3333 44.6667M88 45L88 46L92 47L90 44L88 45M126 44L122 47L122 48L128 46L126 44M162 45L162 46L168 48L168 47L164 44L162 45M197.333 44.6667L197.667 45.3333L197.333 44.6667M199 45L199 46L205 48L205 47L201 44L199 45M12 45L13 46L12 45z"/>
<path style="fill:#1b1795; stroke:none;" d="M15 45L13 48L18 48L15 45z"/>
<path style="fill:#9373d2; stroke:none;" d="M49 45L50 46L49 45z"/>
<path style="fill:#1b1795; stroke:none;" d="M52 45L53 46L52 45M89 45L89 47L91 47L89 45z"/>
<path style="fill:#9373d2; stroke:none;" d="M92 45L93 46L92 45M123 45L124 46L123 45z"/>
<path style="fill:#1b1795; stroke:none;" d="M126 45L125 47L127 47L126 45z"/>
<path style="fill:#9373d2; stroke:none;" d="M129 45L130 46L129 45M160 45L161 46L160 45z"/>
<path style="fill:#1b1795; stroke:none;" d="M163 45L166 48L163 45z"/>
<path style="fill:#9373d2; stroke:none;" d="M166 45L167 46L166 45z"/>
<path style="fill:#1b1795; stroke:none;" d="M200 45L201 46L200 45z"/>
<path style="fill:#9373d2; stroke:none;" d="M203 45L204 46L203 45z"/>
<path style="fill:#1b1795; stroke:none;" d="M19 46L20 47L19 46M51 46L52 47L51 46M53 46L54 47L53 46M56 46L57 47L56 46z"/>
<path style="fill:#9373d2; stroke:none;" d="M87 46L85 47L85 48L87 46z"/>
<path style="fill:#1b1795; stroke:none;" d="M122 46L123 47L122 46z"/>
<path style="fill:#9373d2; stroke:none;" d="M128 46L131 48L131 47L128 46z"/>
<path style="fill:#1b1795; stroke:none;" d="M130 46L131 47L130 46z"/>
<path style="fill:#9373d2; stroke:none;" d="M161 46L159 47L159 48L161 46z"/>
<path style="fill:#1b1795; stroke:none;" d="M167 46L168 47L167 46z"/>
<path style="fill:#9373d2; stroke:none;" d="M198 46L199 47L198 46z"/>
<path style="fill:#1b1795; stroke:none;" d="M201 46L202 47L201 46z"/>
<path style="fill:#9373d2; stroke:none;" d="M48.6667 47.3333L49.3333 47.6667L48.6667 47.3333M55.6667 47.3333L56.3333 47.6667L55.6667 47.3333z"/>
<path style="fill:#1b1795; stroke:none;" d="M87 47L88 48L87 47z"/>
<path style="fill:#9373d2; stroke:none;" d="M92.6667 47.3333L93.3333 47.6667L92.6667 47.3333z"/>
<path style="fill:#1b1795; stroke:none;" d="M124 47L125 48L124 47M128 47L129 48L128 47M161 47L162 48L161 47z"/>
<path style="fill:#9373d2; stroke:none;" d="M196.667 47.3333L197.333 47.6667L196.667 47.3333z"/>
<path style="fill:#1b1795; stroke:none;" d="M202 47L203 48L202 47M48 48L49 49L48 48M71.3333 48.6667L71.6667 49.3333L71.3333 48.6667M85 48L86 49L85 48M92.6667 48.3333L93.3333 48.6667L92.6667 48.3333M144 48L146 50L144 48M159 48L160 49L159 48M196 48L197 49L196 48z"/>
<path style="fill:#9373d2; stroke:none;" d="M33 49L33 52L35 49L33 49M70 49L72 52L70 49M107 49L108 53L109 53L107 49z"/>
<path style="fill:#1b1795; stroke:none;" d="M108 49L109 50L108 49z"/>
<path style="fill:#9373d2; stroke:none;" d="M144 49L145 53L146 53L144 49M181 49L182 50L181 49z"/>
<path style="fill:#1b1795; stroke:none;" d="M35 50L38 54L35 50M180 50L177 53L177 54L180 50z"/>
<path style="fill:#faf5f6; stroke:none;" d="M181 50L181 55L176 54L176 55L180 57L178 62L183 59L184 62L185 62L187 55L187 54L181 50z"/>
<path style="fill:#1b1795; stroke:none;" d="M182 50L187 56L188 56L189 54L182 50M32 51L30 54C32.2508 53.5267 33.1178 53.1397 32 51z"/>
<path style="fill:#faf5f6; stroke:none;" d="M34 51L33 55L29 54L31 62L32 62L33 59L38 62L39 54L35 55L34 51M70 51L70 55L66 55L66 56L68 62L69 62L70 59L75 62L76 54L72 55L70 51z"/>
<path style="fill:#1b1795; stroke:none;" d="M106 51L104 54C106.251 53.5267 107.118 53.1397 106 51z"/>
<path style="fill:#faf5f6; stroke:none;" d="M107 51L107 55L103 55L103 56L106 57L105 61L111 61L112 55L107 51z"/>
<path style="fill:#1b1795; stroke:none;" d="M109 51L111 54L109 51z"/>
<path style="fill:#faf5f6; stroke:none;" d="M144 51L144 55L140 55L140 56L143 57L141 62L148 61L150 54L146 55L144 51z"/>
<path style="fill:#1b1795; stroke:none;" d="M69 52L66 53L66 54L69 52M140 53L140 54L144 52L140 53M146 52L149 54L146 52z"/>
<path style="fill:#9373d2; stroke:none;" d="M182.333 52.6667L182.667 53.3333L182.333 52.6667z"/>
<path style="fill:#1b1795; stroke:none;" d="M40 53L38 61L39 61L40 53M72 53L72 54L76 54L72 53M102 53L103 54L102 53M112 53L112 54L113 56L114 56L115 53L112 53M150 53L150 56L151 56L150 53z"/>
<path style="fill:#9373d2; stroke:none;" d="M180 53L177 54L177 55L180 53z"/>
<path style="fill:#1b1795; stroke:none;" d="M27 54L29 56L27 54z"/>
<path style="fill:#9373d2; stroke:none;" d="M28 54L29 55L28 54M30 54L30 55L33 55L30 54M35 54L35 55L38 55L35 54M39 54L40 55L39 54M64 54L64 55L70 55L64 54M72 54L72 55L75 55L72 54M76 54L75 56L76 54z"/>
<path style="fill:#1b1795; stroke:none;" d="M77 54L78 55L77 54z"/>
<path style="fill:#9373d2; stroke:none;" d="M101 54L101 55L107 55L101 54M109 54L109 55L114 55L109 54M138 54L138 55L144 55L138 54M146.667 54.3333L147.333 54.6667L146.667 54.3333M150 54L151 55L150 54M175 54L176 55L175 54M183 54L183 55L186 55L183 54M187 54L188 55L187 54M29 55L30 56L29 55M38 55L39 56L38 55z"/>
<path style="fill:#1b1795; stroke:none;" d="M76 55L77 56L76 55z"/>
<path style="fill:#9373d2; stroke:none;" d="M149 55L150 56L149 55M176 55L177 56L176 55M186 55L187 56L186 55M30 56L31 57L30 56M37 56L38 57L37 56M67 56L68 57L67 56M74 56L75 57L74 56M104 56L105 57L104 56M111 56L112 57L111 56z"/>
<path style="fill:#1b1795; stroke:none;" d="M140 56L140 63L141 63L140 56z"/>
<path style="fill:#9373d2; stroke:none;" d="M141 56L142 57L141 56z"/>
<path style="fill:#1b1795; stroke:none;" d="M148 56L150 61L148 56M177 56L178 60L179 60L177 56z"/>
<path style="fill:#9373d2; stroke:none;" d="M178 56L179 57L178 56M184 56L185 57L184 56z"/>
<path style="fill:#1b1795; stroke:none;" d="M185 56L186 57L185 56M31 57L29 62L30 62L31 57z"/>
<path style="fill:#9373d2; stroke:none;" d="M36.3333 57.6667L36.6667 58.3333L36.3333 57.6667z"/>
<path style="fill:#1b1795; stroke:none;" d="M67 57L67 61L68 61L69 57L67 57M73 57L75 63L76 63L73 57M104 57L103 62L104 62L106 57L104 57M110 57L111 61L112 61L110 57z"/>
<path style="fill:#9373d2; stroke:none;" d="M142.333 57.6667L142.667 58.3333L142.333 57.6667M179.333 57.6667L179.667 58.3333L179.333 57.6667z"/>
<path style="fill:#1b1795; stroke:none;" d="M184 57L185 61L186 61L184 57z"/>
<path style="fill:#9373d2; stroke:none;" d="M31.3333 58.6667L31.6667 59.3333L31.3333 58.6667M68.3333 58.6667L68.6667 59.3333L68.3333 58.6667M73 58L74 59L73 58M105 58L106 59L105 58M110 58L111 59L110 58M147 58L148 59L147 58M216 58L217 59L216 58z"/>
<path style="fill:#faf5f6; stroke:none;" d="M217 79L247 78L301 78L474 78L474 58L274 58L233 58C229.071 58 220.85 56.4562 217.603 59.0278C213.805 62.0361 215.806 74.9608 217 79z"/>
<path style="fill:#1b1795; stroke:none;" d="M15 59L11 64L11 65C14.1406 63.9699 15.3773 62.3628 15 59z"/>
<path style="fill:#9373d2; stroke:none;" d="M32 60L32 61L36 61L32 60z"/>
<path style="fill:#1b1795; stroke:none;" d="M52 59L53 60L52 59z"/>
<path style="fill:#9373d2; stroke:none;" d="M69 60L69 61L73 61L69 60z"/>
<path style="fill:#1b1795; stroke:none;" d="M89 59L88 63L89 63L89 59z"/>
<path style="fill:#9373d2; stroke:none;" d="M104 63L110 61C107.493 58.7267 104.554 59.5082 104 63z"/>
<path style="fill:#1b1795; stroke:none;" d="M126 59L127 60L126 59z"/>
<path style="fill:#9373d2; stroke:none;" d="M142 62L149 63C146.914 59.741 144.828 59.3678 142 62z"/>
<path style="fill:#1b1795; stroke:none;" d="M163 59L162 62L163 62L163 59z"/>
<path style="fill:#9373d2; stroke:none;" d="M179 62L184 61L179 62M184 59L185 60L184 59z"/>
<path style="fill:#1b1795; stroke:none;" d="M200 59L199 62L200 62L200 59z"/>
<path style="fill:#9373d2; stroke:none;" d="M15.3333 60.6667L15.6667 61.3333L15.3333 60.6667z"/>
<path style="fill:#1b1795; stroke:none;" d="M33 60L35 62L35 60L33 60z"/>
<path style="fill:#9373d2; stroke:none;" d="M37 60L38 61L37 60M52.3333 60.6667L52.6667 61.3333L52.3333 60.6667z"/>
<path style="fill:#1b1795; stroke:none;" d="M70.6667 60.3333L71.3333 60.6667L70.6667 60.3333z"/>
<path style="fill:#9373d2; stroke:none;" d="M74 60L75 61L74 60M89 60L90 61L89 60z"/>
<path style="fill:#1b1795; stroke:none;" d="M106 62L109 60L106 62z"/>
<path style="fill:#9373d2; stroke:none;" d="M126 60L125 65L120 65L120 66C123.884 65.6983 126.857 64.3405 126 60M141 60L142 61L141 60z"/>
<path style="fill:#1b1795; stroke:none;" d="M144.667 60.3333L145.333 60.6667L144.667 60.3333z"/>
<path style="fill:#9373d2; stroke:none;" d="M163 60L162 65L163 65L163 60M178 60L179 61L178 60z"/>
<path style="fill:#1b1795; stroke:none;" d="M181.667 60.3333L182.333 60.6667L181.667 60.3333z"/>
<path style="fill:#9373d2; stroke:none;" d="M200 60L199 65L200 65L200 60M30.3333 61.6667L30.6667 62.3333L30.3333 61.6667z"/>
<path style="fill:#1b1795; stroke:none;" d="M32 61L33 62L32 61z"/>
<path style="fill:#9373d2; stroke:none;" d="M36 61L37 62L36 61z"/>
<path style="fill:#1b1795; stroke:none;" d="M51 61L46 67L47 67L51 61M53 61L57 65L57 64L53 61z"/>
<path style="fill:#9373d2; stroke:none;" d="M67.3333 61.6667L67.6667 62.3333L67.3333 61.6667z"/>
<path style="fill:#1b1795; stroke:none;" d="M69.3333 61.6667L69.6667 62.3333L69.3333 61.6667z"/>
<path style="fill:#9373d2; stroke:none;" d="M73 61L74 62L73 61z"/>
<path style="fill:#faf5f6; stroke:none;" d="M89 61L85 67L88 68L86 73L89 70L90 70L93 73L91 68L95 66L95 65L89 61z"/>
<path style="fill:#9373d2; stroke:none;" d="M110 61L112 63L112 61L110 61z"/>
<path style="fill:#1b1795; stroke:none;" d="M125 61L126 62L125 61M127 61L132 65L132 64L127 61M143 61L144 62L143 61M146 61L146 63L148 63L146 61M180 61L181 62L180 61M183 61L184 62L183 61z"/>
<path style="fill:#9373d2; stroke:none;" d="M185.333 61.6667L185.667 62.3333L185.333 61.6667z"/>
<path style="fill:#faf5f6; stroke:none;" d="M15 62L11 67L14 68L12 73L15 70L16 70L19 73L17 68L20 67L15 62z"/>
<path style="fill:#1b1795; stroke:none;" d="M16 62L20 65L20 64L16 62z"/>
<path style="fill:#9373d2; stroke:none;" d="M37 62L38 63L37 62z"/>
<path style="fill:#1b1795; stroke:none;" d="M38 62L39 63L38 62z"/>
<path style="fill:#faf5f6; stroke:none;" d="M52 62L48 67L51 68L49 73L52 70L53 70L56 73L58 65L52 62z"/>
<path style="fill:#1b1795; stroke:none;" d="M66 62L67 63L66 62z"/>
<path style="fill:#9373d2; stroke:none;" d="M74 62L75 63L74 62z"/>
<path style="fill:#1b1795; stroke:none;" d="M90 62L91 63L90 62M105 62L106 63L105 62z"/>
<path style="fill:#faf5f6; stroke:none;" d="M126 62L121 66L121 67L125 68L123 73L126 70L127 70L130 73L128 68L131 67L131 66L126 62z"/>
<path style="fill:#9373d2; stroke:none;" d="M141 62L142 63L141 62z"/>
<path style="fill:#1b1795; stroke:none;" d="M149 62L150 63L149 62z"/>
<path style="fill:#faf5f6; stroke:none;" d="M163 62L159 66L160 73L163 70L164 70L167 73L165 68L169 65L163 62z"/>
<path style="fill:#1b1795; stroke:none;" d="M164 62L170 65L170 64L164 62M177.333 62.6667L177.667 63.3333L177.333 62.6667z"/>
<path style="fill:#9373d2; stroke:none;" d="M178 62L179 63L178 62z"/>
<path style="fill:#1b1795; stroke:none;" d="M184 62L185 63L184 62z"/>
<path style="fill:#faf5f6; stroke:none;" d="M200 62L196 66L197 73L200 70L201 70L204 73L202 68L206 66L206 65L201 66L200 62z"/>
<path style="fill:#1b1795; stroke:none;" d="M201 62L205 65L205 64L201 62z"/>
<path style="fill:#9373d2; stroke:none;" d="M16.3333 63.6667L16.6667 64.3333L16.3333 63.6667M51.3333 63.6667L51.6667 64.3333L51.3333 63.6667M88 63L83 65L83 66C85.5563 66.2346 88.5005 66.0987 88 63M90 63L94 66L94 65L90 63z"/>
<path style="fill:#1b1795; stroke:none;" d="M124 63L123 65L125 65L124 63M161 63L158 64L158 65L162 66L161 63M198 63L199 66L198 63z"/>
<path style="fill:#9373d2; stroke:none;" d="M14 64L15 65L14 64M53 64L54 65L53 64z"/>
<path style="fill:#1b1795; stroke:none;" d="M87 64L88 65L87 64M91.6667 64.3333L92.3333 64.6667L91.6667 64.3333M94.6667 64.3333L95.3333 64.6667L94.6667 64.3333M121 64L122 65L121 64z"/>
<path style="fill:#9373d2; stroke:none;" d="M127 64L128 65L127 64M164 64L165 65L164 64M201 64L205 66L205 65L201 64M9 65L9 66L14 66L9 65M17 65L17 66L22 66L17 65M46 65L46 66L51 66L46 65M54 65L54 66L57 66L54 65M58 65L59 66L58 65z"/>
<path style="fill:#1b1795; stroke:none;" d="M82 65L83 66L82 65z"/>
<path style="fill:#9373d2; stroke:none;" d="M95 65L96 66L95 65z"/>
<path style="fill:#1b1795; stroke:none;" d="M119 65L120 66L119 65z"/>
<path style="fill:#9373d2; stroke:none;" d="M128 65L128 66L133 66L128 65M157 65L160 68L161 66L157 65M165 65L165 66L168 66L165 65M169 65L168 67L169 65M194 65L197 68L198 66L194 65M206 65L207 66L206 65M57 66L58 67L57 66z"/>
<path style="fill:#1b1795; stroke:none;" d="M60 66L61 67L60 66z"/>
<path style="fill:#9373d2; stroke:none;" d="M94 66L95 67L94 66z"/>
<path style="fill:#1b1795; stroke:none;" d="M169 66L170 67L169 66M194 66L195 67L194 66z"/>
<path style="fill:#9373d2; stroke:none;" d="M205 66L206 67L205 66z"/>
<path style="fill:#1b1795; stroke:none;" d="M11 67L12 71L13 71L11 67M19 67L19 71L19 67M48 67L48 73L49 73L48 67M56 67L56 71L57 71L58 67L56 67M84 67L85 73L86 73L84 67z"/>
<path style="fill:#9373d2; stroke:none;" d="M92 67L91 69L92 67z"/>
<path style="fill:#1b1795; stroke:none;" d="M93 67L92 70L93 67M120 67L122 73C123.969 69.9631 123.443 68.1515 120 67z"/>
<path style="fill:#9373d2; stroke:none;" d="M129 67L128 69L129 67z"/>
<path style="fill:#1b1795; stroke:none;" d="M130 67L129 71L132 68L130 67M158 67L159 68L158 67M167 67L168 68L167 67M195 67L196 68L195 67z"/>
<path style="fill:#9373d2; stroke:none;" d="M203 67L202 69L203 67z"/>
<path style="fill:#1b1795; stroke:none;" d="M204.667 67.3333L205.333 67.6667L204.667 67.3333z"/>
<path style="fill:#9373d2; stroke:none;" d="M13 68L14 69L13 68M17 68L18 69L17 68z"/>
<path style="fill:#1b1795; stroke:none;" d="M23 68L24 69L23 68z"/>
<path style="fill:#9373d2; stroke:none;" d="M50 68L51 69L50 68M87 68L88 69L87 68M124 68L125 69L124 68z"/>
<path style="fill:#1b1795; stroke:none;" d="M159 68L159 73L160 73L161 68L159 68z"/>
<path style="fill:#9373d2; stroke:none;" d="M165 68L166 69L165 68z"/>
<path style="fill:#1b1795; stroke:none;" d="M166 68L166 71L167 71L166 68M196 68L196 73L197 73L198 68L196 68M203 68L203 71L204 71L203 68z"/>
<path style="fill:#9373d2; stroke:none;" d="M15 70L13 73L15 70M18 70L19 71L18 70M52 70L53 71L52 70M55 70L56 71L55 70M89 70L90 71L89 70M92 70L93 71L92 70M126 70L127 71L126 70M160 70L161 71L160 70M163 70L164 71L163 70M197 70L198 71L197 70M200 70L202 72L200 70M12 71L13 72L12 71z"/>
<path style="fill:#1b1795; stroke:none;" d="M15 71L18 73L15 71z"/>
<path style="fill:#9373d2; stroke:none;" d="M49 71L50 72L49 71z"/>
<path style="fill:#1b1795; stroke:none;" d="M51 71L52 74L55 72L51 71z"/>
<path style="fill:#9373d2; stroke:none;" d="M86 71L87 72L86 71z"/>
<path style="fill:#1b1795; stroke:none;" d="M87 74L92 73C89.587 71.3382 88.6076 71.5561 87 74M93 71L94 72L93 71M124 72L124 73L131 75L131 72L124 72M161 74L166 72L161 74M198 72L198 73L203 74L198 72z"/>
<path style="fill:#9373d2; stroke:none;" d="M203 71L204 72L203 71z"/>
<path style="fill:#1b1795; stroke:none;" d="M11 72L11 75L12 75L11 72M14 72L15 73L14 72z"/>
<path style="fill:#9373d2; stroke:none;" d="M19.3333 72.6667L19.6667 73.3333L19.3333 72.6667M50 72L51 73L50 72M56.3333 72.6667L56.6667 73.3333L56.3333 72.6667M93.3333 72.6667L93.6667 73.3333L93.3333 72.6667M161 72L162 73L161 72z"/>
<path style="fill:#1b1795; stroke:none;" d="M167 72L168 73L167 72M204 72L205 73L204 72z"/>
<path style="fill:#9373d2; stroke:none;" d="M12 73L13 74L12 73z"/>
<path style="fill:#1b1795; stroke:none;" d="M18 73L19 74L18 73z"/>
<path style="fill:#9373d2; stroke:none;" d="M48.6667 73.3333L49.3333 73.6667L48.6667 73.3333z"/>
<path style="fill:#1b1795; stroke:none;" d="M55 73L56 74L55 73z"/>
<path style="fill:#9373d2; stroke:none;" d="M85 73L85 75L87 73L85 73z"/>
<path style="fill:#1b1795; stroke:none;" d="M92 73L93 74L92 73z"/>
<path style="fill:#9373d2; stroke:none;" d="M122.667 73.3333L123.333 73.6667L122.667 73.3333M130 73L131 74L130 73M159.667 73.3333L160.333 73.6667L159.667 73.3333M166.667 73.3333L167.333 73.6667L166.667 73.3333M196.667 73.3333L197.333 73.6667L196.667 73.3333M203.667 73.3333L204.333 73.6667L203.667 73.3333z"/>
<path style="fill:#1b1795; stroke:none;" d="M19 74L20 75L19 74M34 74L35 75L34 74M70.6667 74.3333L71.3333 74.6667L70.6667 74.3333M93 74L94 75L93 74M107 74L109 80L113 80L113 79L107 74M122 74L123 75L122 74z"/>
<path style="fill:#9373d2; stroke:none;" d="M144 74L145 79L146 79L144 74z"/>
<path style="fill:#1b1795; stroke:none;" d="M159 74L160 75L159 74M181 74L183 80L187 80L187 79L181 74M196 74L197 75L196 74M204 74L205 75L204 74z"/>
<path style="fill:#9373d2; stroke:none;" d="M33 75L33 78L35 75L33 75M70 75L72 78L72 75L70 75M107 75L109 78L107 75z"/>
<path style="fill:#1b1795; stroke:none;" d="M145 75L146 76L145 75M165 75L166 76L165 75z"/>
<path style="fill:#9373d2; stroke:none;" d="M181 75L182 76L181 75z"/>
<path style="fill:#1b1795; stroke:none;" d="M32 76L28 82L29 82L33 80L32 76M106 76L104 79L104 80C106.649 79.4324 107.355 78.4122 106 76M143 76L142 80L143 76z"/>
<path style="fill:#faf5f6; stroke:none;" d="M144 76L143 81L139 80L139 81L141 88L148 87L150 81L150 80L144 76M181 76L180 81L176 80L176 81C178.769 83.2805 178.907 84.5693 178 88L185 87L187 81L187 80L181 76M34 77L29 80L29 81L31 87L37 87L39 80L34 77z"/>
<path style="fill:#1b1795; stroke:none;" d="M35 77L39 80L39 79L35 77M69 77L67 79L67 80C69.2508 79.5267 70.1178 79.1397 69 77z"/>
<path style="fill:#faf5f6; stroke:none;" d="M70 77L66 80L66 81L69 82L68 87L75 88L73 82L76 81L76 80L73 81L70 77z"/>
<path style="fill:#1b1795; stroke:none;" d="M72 77L76 80L76 79L72 77z"/>
<path style="fill:#faf5f6; stroke:none;" d="M107 77L103 80L103 81L106 82L105 87L111 87L110 82L113 81L113 80L107 77z"/>
<path style="fill:#1b1795; stroke:none;" d="M146 77L150 80L150 79L146 77M180 77L177 79L177 80L180 77z"/>
<path style="fill:#9373d2; stroke:none;" d="M182.333 77.6667L182.667 78.3333L182.333 77.6667M216 78L217 79L216 78M218 78L218 79L343 79C332.973 74.7923 315.896 78 305 78L218 78M344 78L344 79L474 79C463.734 74.6924 446.158 78 435 78L344 78M39.3333 79.6667L39.6667 80.3333L39.3333 79.6667z"/>
<path style="fill:#1b1795; stroke:none;" d="M40 79L41 80L40 79M64 79L64 81L66 79L64 79z"/>
<path style="fill:#9373d2; stroke:none;" d="M76 79L75 82L76 79z"/>
<path style="fill:#1b1795; stroke:none;" d="M77.3333 79.6667L77.6667 80.3333L77.3333 79.6667M101 79L104 86L105 86L106 83L101 79z"/>
<path style="fill:#9373d2; stroke:none;" d="M113 79L112 82L113 79z"/>
<path style="fill:#1b1795; stroke:none;" d="M114.333 79.6667L114.667 80.3333L114.333 79.6667M138 79L138 81L140 79L138 79z"/>
<path style="fill:#9373d2; stroke:none;" d="M150.333 79.6667L150.667 80.3333L150.333 79.6667z"/>
<path style="fill:#1b1795; stroke:none;" d="M151 79L152 80L151 79M175.333 79.6667L175.667 80.3333L175.333 79.6667z"/>
<path style="fill:#9373d2; stroke:none;" d="M180 79L181 80L180 79M187.333 79.6667L187.667 80.3333L187.333 79.6667z"/>
<path style="fill:#1b1795; stroke:none;" d="M188 79L189 80L188 79z"/>
<path style="fill:#f40a0b; stroke:none;" d="M216 97L474 97L474 79L277 79L232 79L217.028 80.6034L216 97z"/>
<path style="fill:#9373d2; stroke:none;" d="M28 80L29 81L28 80M65 80L66 81L65 80M73 80L74 81L73 80M102 80L103 81L102 80M142 80L143 81L142 80M179 80L180 81L179 80M29 81L30 82L29 81M38 81L39 82L38 81M66 81L67 82L66 81z"/>
<path style="fill:#1b1795; stroke:none;" d="M76 81L77 82L76 81z"/>
<path style="fill:#9373d2; stroke:none;" d="M103 81L104 82L103 81z"/>
<path style="fill:#1b1795; stroke:none;" d="M113 81L114 82L113 81M139 81L141 86L142 86L139 81z"/>
<path style="fill:#9373d2; stroke:none;" d="M140 81L141 82L140 81M148 81L147 83L148 81z"/>
<path style="fill:#1b1795; stroke:none;" d="M147 84L151 81L147 84M176 81L177 87L178 87L176 81z"/>
<path style="fill:#9373d2; stroke:none;" d="M177 81L178 82L177 81z"/>
<path style="fill:#1b1795; stroke:none;" d="M184 84L188 82L184 84M30 82L30 84L32 84L30 82z"/>
<path style="fill:#9373d2; stroke:none;" d="M31 82L32 83L31 82z"/>
<path style="fill:#1b1795; stroke:none;" d="M37 82L37 86L38 86L39 82L37 82M66 82L67 87L68 87L66 82z"/>
<path style="fill:#9373d2; stroke:none;" d="M68 82L69 83L68 82M73 82L74 83L73 82z"/>
<path style="fill:#1b1795; stroke:none;" d="M74 82L74 86L75 86L74 82z"/>
<path style="fill:#9373d2; stroke:none;" d="M105 82L106 83L105 82M110 82L111 83L110 82z"/>
<path style="fill:#1b1795; stroke:none;" d="M111 82L111 86L112 86L111 82z"/>
<path style="fill:#9373d2; stroke:none;" d="M184 82L185 83L184 82M36 83L37 84L36 83M142.333 83.6667L142.667 84.3333L142.333 83.6667M179 83L180 84L179 83M31.3333 84.6667L31.6667 85.3333L31.3333 84.6667M68 84L69 85L68 84M105 84L106 85L105 84M110 84L111 85L110 84M147 84L148 85L147 84M184.333 84.6667L184.667 85.3333L184.333 84.6667z"/>
<path style="fill:#1b1795; stroke:none;" d="M15 85L16 86L15 85M30.3333 85.6667L30.6667 86.3333L30.3333 85.6667z"/>
<path style="fill:#9373d2; stroke:none;" d="M33 85L30 87L30 88L33 85z"/>
<path style="fill:#1b1795; stroke:none;" d="M33 87L36 87L35 85L33 87z"/>
<path style="fill:#9373d2; stroke:none;" d="M52.3333 85.6667L52.6667 86.3333L52.3333 85.6667M70 85L67 87L67 88L70 85z"/>
<path style="fill:#1b1795; stroke:none;" d="M70 86L74 88L72 85L70 86M89 85L90 86L89 85M107 85L110 87L107 85z"/>
<path style="fill:#9373d2; stroke:none;" d="M126.333 85.6667L126.667 86.3333L126.333 85.6667z"/>
<path style="fill:#1b1795; stroke:none;" d="M142 88L147 86L142 88M162 85L162 88L163 88L164 85L162 85M181 85L179 88L183 86L181 85z"/>
<path style="fill:#9373d2; stroke:none;" d="M182 85L183 86L182 85z"/>
<path style="fill:#1b1795; stroke:none;" d="M200 85L201 86L200 85z"/>
<path style="fill:#9373d2; stroke:none;" d="M15 86L16 87L15 86M37.3333 86.6667L37.6667 87.3333L37.3333 86.6667z"/>
<path style="fill:#1b1795; stroke:none;" d="M53 86C53.728 89.3506 54.5971 90.4125 58 91L58 90L53 86z"/>
<path style="fill:#9373d2; stroke:none;" d="M74 86L75 87L74 86M89 86L90 87L89 86M104 86L104 88L106 88L104 86M106 86L107 87L106 86M111 86L110 88L112 88L111 86z"/>
<path style="fill:#1b1795; stroke:none;" d="M127 86C127.728 89.3506 128.597 90.4125 132 91L132 90L127 86z"/>
<path style="fill:#9373d2; stroke:none;" d="M141 86L142 87L141 86M148 86L147 88L149 88L148 86M163 86L164 87L163 86M178 86L179 87L178 86M183 86L184 87L183 86z"/>
<path style="fill:#1b1795; stroke:none;" d="M185 86L186 87L185 86z"/>
<path style="fill:#9373d2; stroke:none;" d="M200 86L196 92L199 95L197 92L200 86z"/>
<path style="fill:#1b1795; stroke:none;" d="M14 87L10 90L10 91C12.7243 90.5361 14.4479 89.9749 14 87z"/>
<path style="fill:#faf5f6; stroke:none;" d="M15 87L12 92L12 99L19 98L21 92L21 91L17 92L15 87z"/>
<path style="fill:#1b1795; stroke:none;" d="M32 87L33 88L32 87M36 87L37 88L36 87M51 87L46 90L46 91C48.9435 90.7675 51.5071 90.3922 51 87z"/>
<path style="fill:#faf5f6; stroke:none;" d="M52 87L51 92L47 91L47 92C49.7689 94.2805 49.9066 95.5693 49 99L56 98L58 92L58 91L54 92L52 87z"/>
<path style="fill:#1b1795; stroke:none;" d="M69 87L70 88L69 87M75 87L74 89L76 89L75 87M88 87L83 90L83 91C85.9435 90.7675 88.5071 90.3922 88 87z"/>
<path style="fill:#faf5f6; stroke:none;" d="M89 87L88 92L84 91L84 92L88 94L86 99L87 99L93 98L94 91L91 92L89 87z"/>
<path style="fill:#1b1795; stroke:none;" d="M125 87L126 88L125 87z"/>
<path style="fill:#faf5f6; stroke:none;" d="M126 87L125 92L121 91L121 92L125 94L123 99L130 98L132 92L132 91L127 91L126 87z"/>
<path style="fill:#1b1795; stroke:none;" d="M140 87L140 89L142 89L140 87z"/>
<path style="fill:#faf5f6; stroke:none;" d="M163 87L162 92L158 91L158 92L160 98L166 99L167 99C166.318 95.5799 166.173 94.1864 169 92L169 91L165 92L163 87z"/>
<path style="fill:#9373d2; stroke:none;" d="M184.667 87.3333L185.333 87.6667L184.667 87.3333M16 88L17 92L18 92L16 88z"/>
<path style="fill:#1b1795; stroke:none;" d="M29.6667 88.3333L30.3333 88.6667L29.6667 88.3333M37.6667 88.3333L38.3333 88.6667L37.6667 88.3333M67 88L68 89L67 88M90 88L95 91L90 88M104 88L105 89L104 88M110 88L110 89L113 89L110 88z"/>
<path style="fill:#9373d2; stroke:none;" d="M125 88L123 91L123 92L125 88M162 88L161 92L162 92L162 88z"/>
<path style="fill:#1b1795; stroke:none;" d="M164 88L170 91L170 90L164 88M177.667 88.3333L178.333 88.6667L177.667 88.3333z"/>
<path style="fill:#faf5f6; stroke:none;" d="M200 88L197 92L197 98L202 96L203 99L204 99C203.318 95.5799 203.173 94.1864 206 92L206 91L200 88z"/>
<path style="fill:#1b1795; stroke:none;" d="M201 88L205 91L205 90L201 88z"/>
<path style="fill:#9373d2; stroke:none;" d="M14.3333 89.6667L14.6667 90.3333L14.3333 89.6667M51.3333 89.6667L51.6667 90.3333L51.3333 89.6667M53.3333 89.6667L53.6667 90.3333L53.3333 89.6667M88.3333 89.6667L88.6667 90.3333L88.3333 89.6667M90.3333 89.6667L90.6667 90.3333L90.3333 89.6667z"/>
<path style="fill:#1b1795; stroke:none;" d="M121 89L121 91L125 91L125 89L121 89z"/>
<path style="fill:#9373d2; stroke:none;" d="M127.333 89.6667L127.667 90.3333L127.333 89.6667z"/>
<path style="fill:#1b1795; stroke:none;" d="M157 90L157 91L162 91L162 89L157 90M194 90L194 91L199 89L194 90M17 90L17 91L21 91L17 90z"/>
<path style="fill:#9373d2; stroke:none;" d="M21.3333 90.6667L21.6667 91.3333L21.3333 90.6667z"/>
<path style="fill:#1b1795; stroke:none;" d="M22 90L23 91L22 90z"/>
<path style="fill:#9373d2; stroke:none;" d="M58.3333 90.6667L58.6667 91.3333L58.3333 90.6667M95 90L93 93L95 90M120.333 90.6667L120.667 91.3333L120.333 90.6667M132.333 90.6667L132.667 91.3333L132.333 90.6667M164 90L165 91L164 90M201 90L202 91L201 90M205.667 90.3333L206.333 90.6667L205.667 90.3333M9 91L10 92L9 91z"/>
<path style="fill:#faf5f6; stroke:none;" d="M10 91L11 92L10 91z"/>
<path style="fill:#9373d2; stroke:none;" d="M11 91L14 95L14 92L11 91M46 91L47 92L46 91M50 91L51 92L50 91M54 91L55 92L54 91z"/>
<path style="fill:#1b1795; stroke:none;" d="M80 91L81 92L80 91z"/>
<path style="fill:#9373d2; stroke:none;" d="M83 91L84 92L83 91M87 91L88 92L87 91M91 91L92 92L91 91M157 91L158 92L157 91M165 91L166 92L165 91M169 91L170 92L169 91z"/>
<path style="fill:#1b1795; stroke:none;" d="M172 91L173 92L172 91z"/>
<path style="fill:#9373d2; stroke:none;" d="M194 91L195 92L194 91z"/>
<path style="fill:#faf5f6; stroke:none;" d="M195.667 91.3333L196.333 91.6667L195.667 91.3333z"/>
<path style="fill:#1b1795; stroke:none;" d="M206 91L207 92L206 91M10 92L11 93L10 92z"/>
<path style="fill:#9373d2; stroke:none;" d="M19 92L17 95L19 92z"/>
<path style="fill:#1b1795; stroke:none;" d="M20 92L21 93L20 92M47 92L49 94L49 100L50 100L47 92z"/>
<path style="fill:#9373d2; stroke:none;" d="M48 92L49 93L48 92M56 92L54 95L56 92z"/>
<path style="fill:#1b1795; stroke:none;" d="M57 92L56 94L58 94L57 92M84 92L85 93L84 92M94 92L95 93L94 92M121 92L122 97L123 97L121 92z"/>
<path style="fill:#9373d2; stroke:none;" d="M130 92L131 93L130 92z"/>
<path style="fill:#1b1795; stroke:none;" d="M131 92L130 98L131 98L131 92M158 92L161 96L158 92z"/>
<path style="fill:#9373d2; stroke:none;" d="M167 92L165 95L167 92z"/>
<path style="fill:#1b1795; stroke:none;" d="M167 97L168 97L170 92L167 97M194.667 92.3333L195.333 92.6667L194.667 92.3333z"/>
<path style="fill:#9373d2; stroke:none;" d="M204 92L205 93L204 92z"/>
<path style="fill:#1b1795; stroke:none;" d="M205 92L203 96L205 92M11 93L11 97L11 93M19 93L18 96L19 93z"/>
<path style="fill:#9373d2; stroke:none;" d="M49 93L50 94L49 93z"/>
<path style="fill:#1b1795; stroke:none;" d="M85 93L85 97L86 97L85 93z"/>
<path style="fill:#9373d2; stroke:none;" d="M86 93L87 94L86 93z"/>
<path style="fill:#1b1795; stroke:none;" d="M92 93L93 97L94 97L94 93L92 93z"/>
<path style="fill:#9373d2; stroke:none;" d="M123 93L124 94L123 93M160 93L161 94L160 93z"/>
<path style="fill:#1b1795; stroke:none;" d="M196 93L196 98L197 98L196 93z"/>
<path style="fill:#9373d2; stroke:none;" d="M50 94L51 95L50 94z"/>
<path style="fill:#1b1795; stroke:none;" d="M55.3333 94.6667L55.6667 95.3333L55.3333 94.6667z"/>
<path style="fill:#9373d2; stroke:none;" d="M87 94L88 95L87 94M91 94L92 95L91 94M124 94L125 95L124 94M128 94L129 95L128 94M202 94L203 95L202 94z"/>
<path style="fill:#1b1795; stroke:none;" d="M15 96L13 99L18 99L15 96z"/>
<path style="fill:#9373d2; stroke:none;" d="M16 96L17 97L16 96M18 96L19 97L18 96M49.3333 96.6667L49.6667 97.3333L49.3333 96.6667z"/>
<path style="fill:#1b1795; stroke:none;" d="M52 96L51 100L55 99L52 96z"/>
<path style="fill:#9373d2; stroke:none;" d="M53 96L54 97L53 96M55 96L56 97L55 96M86 96L87 97L86 96M88 96L87 98L88 96z"/>
<path style="fill:#1b1795; stroke:none;" d="M88 97L92 99L90 96L88 97z"/>
<path style="fill:#9373d2; stroke:none;" d="M90 96L91 97L90 96M92 96L93 97L92 96M123 96L124 97L123 96z"/>
<path style="fill:#1b1795; stroke:none;" d="M126 96L124 99L129 99L126 96z"/>
<path style="fill:#9373d2; stroke:none;" d="M127 96L128 97L127 96M129 96L130 97L129 96M160 96L161 97L160 96M162 96L163 97L162 96z"/>
<path style="fill:#1b1795; stroke:none;" d="M162 97L166 99L164 96L162 97z"/>
<path style="fill:#9373d2; stroke:none;" d="M164 96L165 97L164 96M166 96L167 97L166 96M197 96L198 97L197 96M199 96L196 100L199 96z"/>
<path style="fill:#1b1795; stroke:none;" d="M200 96L198 99L203 99L200 96z"/>
<path style="fill:#9373d2; stroke:none;" d="M201 96L202 97L201 96M203 96L204 97L203 96M12 97L13 98L12 97M17 97L18 98L17 97z"/>
<path style="fill:#1b1795; stroke:none;" d="M19 97L20 98L19 97z"/>
<path style="fill:#9373d2; stroke:none;" d="M54 97L55 98L54 97z"/>
<path style="fill:#1b1795; stroke:none;" d="M56 97L57 98L56 97z"/>
<path style="fill:#9373d2; stroke:none;" d="M91 97L92 98L91 97M128 97L129 98L128 97M165 97L166 98L165 97M216 97L216 98L474 98L450 97L398 97L216 97z"/>
<path style="fill:#1b1795; stroke:none;" d="M11 98L13 100L11 98z"/>
<path style="fill:#9373d2; stroke:none;" d="M18 98L20 100L20 98L18 98M55 98L57 100L57 98L55 98z"/>
<path style="fill:#1b1795; stroke:none;" d="M85 98L87 100L85 98M87 98L88 99L87 98z"/>
<path style="fill:#9373d2; stroke:none;" d="M92 98L94 100L94 98L92 98z"/>
<path style="fill:#1b1795; stroke:none;" d="M122 98L124 100L122 98z"/>
<path style="fill:#9373d2; stroke:none;" d="M129 98L131 100L131 98L129 98z"/>
<path style="fill:#1b1795; stroke:none;" d="M159 98L159 99L162 100L162 99L162 98L159 98z"/>
<path style="fill:#9373d2; stroke:none;" d="M160 98L161 99L160 98M167.333 98.6667L167.667 99.3333L167.333 98.6667z"/>
<path style="fill:#0909ee; stroke:none;" d="M199 98L200 99L199 98z"/>
<path style="fill:#1b1795; stroke:none;" d="M204 98L203 100L204 98z"/>
<path style="fill:#faf5f6; stroke:none;" d="M216 98L216 118L474 118L474 98L216 98z"/>
<path style="fill:#9373d2; stroke:none;" d="M11 99L12 100L11 99M48 99L49 100L48 99M85 99L86 100L85 99z"/>
<path style="fill:#1b1795; stroke:none;" d="M90 99L91 100L90 99z"/>
<path style="fill:#9373d2; stroke:none;" d="M122 99L123 100L122 99M159 99L160 100L159 99z"/>
<path style="fill:#1b1795; stroke:none;" d="M197 99L198 100L197 99z"/>
<path style="fill:#9373d2; stroke:none;" d="M204 99L205 100L204 99z"/>
<path style="fill:#1b1795; stroke:none;" d="M33.6667 100.333L34.3333 100.667L33.6667 100.333z"/>
<path style="fill:#9373d2; stroke:none;" d="M70 100L72 103L70 100z"/>
<path style="fill:#1b1795; stroke:none;" d="M71 100L72 101L71 100M107 100L108 101L107 100z"/>
<path style="fill:#9373d2; stroke:none;" d="M144 100L145 104L146 104L144 100z"/>
<path style="fill:#1b1795; stroke:none;" d="M145 100L146 101L145 100z"/>
<path style="fill:#9373d2; stroke:none;" d="M181 100L182 105L183 105L181 100M33 101L33 105L34 105L35 101L33 101M107 101L108 104L109 104L109 101L107 101z"/>
<path style="fill:#1b1795; stroke:none;" d="M182 101L183 102L182 101z"/>
<path style="fill:#faf5f6; stroke:none;" d="M34 102L29 106L29 107L31 113L34 110L35 110L38 113L36 108L39 107L39 106L35 106L34 102z"/>
<path style="fill:#1b1795; stroke:none;" d="M106 102L103 104L103 105L106 106L106 102z"/>
<path style="fill:#faf5f6; stroke:none;" d="M107 102L107 106L103 106L103 107L105 113L106 113L107 110L109 110L110 113L111 113L113 107L113 106L107 102M144 102L144 106L140 106L140 107L143 108L142 113L143 113L144 110L148 113L150 107L150 106L144 102z"/>
<path style="fill:#1b1795; stroke:none;" d="M146 102L146 106L150 105L150 104L146 102M180 102L177 105L180 106L180 102z"/>
<path style="fill:#faf5f6; stroke:none;" d="M181 102L181 106L177 106L177 107L180 108L179 112L181 110L182 110L185 113L187 107L187 106L181 102z"/>
<path style="fill:#1b1795; stroke:none;" d="M30 105C32.3962 105.575 32.487 105.475 33 103L30 105M35 103L39 105L39 104L35 103M69 103L68 106L69 103z"/>
<path style="fill:#faf5f6; stroke:none;" d="M70 103L66 106L66 107L68 113L71 110L72 110L75 113L73 108L76 107L76 106L70 103z"/>
<path style="fill:#1b1795; stroke:none;" d="M109 103L111 106L109 103M143 103L141 106L143 103M183 103L183 106L186 105L186 104L183 103M72 104L73 105L72 104z"/>
<path style="fill:#9373d2; stroke:none;" d="M180.333 104.667L180.667 105.333L180.333 104.667z"/>
<path style="fill:#1b1795; stroke:none;" d="M27 105L28 106L27 105z"/>
<path style="fill:#9373d2; stroke:none;" d="M28 107L31 106L28 107M35 105L35 106L40 107L35 105z"/>
<path style="fill:#1b1795; stroke:none;" d="M64 105L65 106L64 105z"/>
<path style="fill:#9373d2; stroke:none;" d="M65 107L68 106L65 107M72 105L72 106L78 106L72 105M101 105L101 106L105 106L101 105M106 105L107 106L106 105M109 105L110 106L109 105M111 105L111 106L115 106L111 105z"/>
<path style="fill:#1b1795; stroke:none;" d="M138 105L139 106L138 105z"/>
<path style="fill:#9373d2; stroke:none;" d="M139 105L139 107L141 105L139 105M143 105L144 106L143 105M147 105L147 106L151 106L147 105z"/>
<path style="fill:#1b1795; stroke:none;" d="M151 105L152 106L151 105z"/>
<path style="fill:#9373d2; stroke:none;" d="M175 105L176 107L177 107L178 105L175 105M184 105L184 106L188 106L184 105z"/>
<path style="fill:#1b1795; stroke:none;" d="M188 105L189 106L188 105M78 106L79 107L78 106M116 106L117 107L116 106M150 106L151 107L150 106M175 106L176 107L175 106M187 106L188 107L187 106M28 107L32 109L28 107z"/>
<path style="fill:#9373d2; stroke:none;" d="M30 107L31 108L30 107M37 107L36 110L37 110L37 107z"/>
<path style="fill:#1b1795; stroke:none;" d="M38 107L37 111L38 107M65 107L65 108L67 112L68 112L65 107z"/>
<path style="fill:#9373d2; stroke:none;" d="M67 107L68 108L67 107M74 107L75 108L74 107z"/>
<path style="fill:#1b1795; stroke:none;" d="M75.6667 107.333L76.3333 107.667L75.6667 107.333M103 107L104 112L105 112L103 107z"/>
<path style="fill:#9373d2; stroke:none;" d="M104 107L105 108L104 107M111 107L110 111L111 111L111 107z"/>
<path style="fill:#1b1795; stroke:none;" d="M112 107L111 112L112 112L114 107L112 107M140 107L141 112L142 112L140 107z"/>
<path style="fill:#9373d2; stroke:none;" d="M148 107L149 108L148 107z"/>
<path style="fill:#1b1795; stroke:none;" d="M149 107L150 108L149 107M176 107L178 112L179 112L176 107z"/>
<path style="fill:#9373d2; stroke:none;" d="M185 107L186 108L185 107z"/>
<path style="fill:#1b1795; stroke:none;" d="M186 107L185 112L186 112L186 107z"/>
<path style="fill:#9373d2; stroke:none;" d="M68 108L69 109L68 108z"/>
<path style="fill:#1b1795; stroke:none;" d="M73 108L75 110L75 108L73 108z"/>
<path style="fill:#9373d2; stroke:none;" d="M105 108L105 111L106 111L105 108M142.333 108.667L142.667 109.333L142.333 108.667z"/>
<path style="fill:#1b1795; stroke:none;" d="M147 108L148 112L149 112L149 108L147 108z"/>
<path style="fill:#9373d2; stroke:none;" d="M179.333 108.667L179.667 109.333L179.333 108.667M31.3333 109.667L31.6667 110.333L31.3333 109.667M73 109L74 110L73 109M34 110L38 114L34 110M68 110L69 111L68 110M71 110L74 113L71 110z"/>
<path style="fill:#1b1795; stroke:none;" d="M89 110L90 111L89 110z"/>
<path style="fill:#9373d2; stroke:none;" d="M107 110L107 111L110 112L107 110M144 110L143 112L144 110M147 110L148 111L147 110M181 110L178 114L181 110M184 110L185 111L184 110z"/>
<path style="fill:#1b1795; stroke:none;" d="M15 111L16 112L15 111M30 111L30 115L31 115L30 111M32 113L35 111L32 113z"/>
<path style="fill:#9373d2; stroke:none;" d="M37 111L38 112L37 111M52.3333 111.667L52.6667 112.333L52.3333 111.667z"/>
<path style="fill:#1b1795; stroke:none;" d="M69 113L72 111L69 113M74 111L75 112L74 111z"/>
<path style="fill:#9373d2; stroke:none;" d="M89.3333 111.667L89.6667 112.333L89.3333 111.667z"/>
<path style="fill:#1b1795; stroke:none;" d="M106 114L110 114L109 111L106 114M126 111L129 117L126 111M142 114L147 112L142 114z"/>
<path style="fill:#9373d2; stroke:none;" d="M163 111L162 116L163 116L163 111z"/>
<path style="fill:#1b1795; stroke:none;" d="M180 113L183 111L180 113M200 111L199 113L200 111z"/>
<path style="fill:#9373d2; stroke:none;" d="M15 112L16 113L15 112M30 112L30 114L32 114L30 112z"/>
<path style="fill:#1b1795; stroke:none;" d="M35 112L36 113L35 112M53.3333 112.667L53.6667 113.333L53.3333 112.667z"/>
<path style="fill:#9373d2; stroke:none;" d="M67 112L67 115L68 115L67 112z"/>
<path style="fill:#1b1795; stroke:none;" d="M72 112L73 113L72 112M88.3333 112.667L88.6667 113.333L88.3333 112.667z"/>
<path style="fill:#9373d2; stroke:none;" d="M104.333 112.667L104.667 113.333L104.333 112.667M111.333 112.667L111.667 113.333L111.333 112.667M126 112L125 114L126 112M141.333 112.667L141.667 113.333L141.333 112.667M148.333 112.667L148.667 113.333L148.333 112.667z"/>
<path style="fill:#1b1795; stroke:none;" d="M162 112L163 113L162 112M183 112L184 113L183 112z"/>
<path style="fill:#9373d2; stroke:none;" d="M185.333 112.667L185.667 113.333L185.333 112.667M200 112L199 116L200 116L200 112z"/>
<path style="fill:#1b1795; stroke:none;" d="M14 113L15 114L14 113z"/>
<path style="fill:#faf5f6; stroke:none;" d="M15 113L15 117L11 117L11 118L14 119L12 124L15 121L16 121L19 124L21 118L21 117L15 113z"/>
<path style="fill:#1b1795; stroke:none;" d="M16 113L17 114L16 113M36 113L37 114L36 113M38.3333 113.667L38.6667 114.333L38.3333 113.667z"/>
<path style="fill:#faf5f6; stroke:none;" d="M52 113L52 117L47 117L47 118L49 124L52 121L53 121L56 124L57 117L53 117L52 113z"/>
<path style="fill:#1b1795; stroke:none;" d="M68 113L69 114L68 113z"/>
<path style="fill:#9373d2; stroke:none;" d="M74 113L75 114L74 113z"/>
<path style="fill:#1b1795; stroke:none;" d="M75.3333 113.667L75.6667 114.333L75.3333 113.667z"/>
<path style="fill:#faf5f6; stroke:none;" d="M89 113L89 117L84 117L84 118L88 119L86 124L89 121L90 121L93 124L94 117L90 117L89 113z"/>
<path style="fill:#1b1795; stroke:none;" d="M90 113L91 117L94 116L94 115L90 113z"/>
<path style="fill:#faf5f6; stroke:none;" d="M126 113L126 117L121 117L121 118L123 124L126 121L127 121L130 124L131 117L127 117L126 113z"/>
<path style="fill:#1b1795; stroke:none;" d="M138 113L139 114L138 113M140.333 113.667L140.667 114.333L140.333 113.667z"/>
<path style="fill:#faf5f6; stroke:none;" d="M163 113L159 117L160 124L163 121L164 121L167 124L165 119L168 118L168 117L164 117L163 113z"/>
<path style="fill:#1b1795; stroke:none;" d="M164 113L165 117L166 117L164 113M177 113L177 115L179 115L177 113M179 113L180 114L179 113M184 113L185 114L184 113M186 113L187 114L186 113z"/>
<path style="fill:#faf5f6; stroke:none;" d="M200 113L195 117L195 118L197 124L200 121L201 121L204 124L202 119L205 118L205 117L201 117L200 113z"/>
<path style="fill:#1b1795; stroke:none;" d="M201 113L202 117L203 117L201 113z"/>
<path style="fill:#9373d2; stroke:none;" d="M14 114L14 117L15 117L14 114M16.3333 114.667L16.6667 115.333L16.3333 114.667z"/>
<path style="fill:#1b1795; stroke:none;" d="M51 114L52 115L51 114z"/>
<path style="fill:#9373d2; stroke:none;" d="M53 114L53 117L54 117L53 114M88 114L88 117L89 117L88 114z"/>
<path style="fill:#1b1795; stroke:none;" d="M125 114L122 117L125 114M159 114C160.119 116.607 161.341 117.068 162 114L159 114M185 114L186 115L185 114M198 114L196 117C198.251 116.527 199.118 116.14 198 114M204.333 114.667L204.667 115.333L204.333 114.667M11 117L14 115L11 117M17 117L20 116L17 117M47 115L47 116L51 117L51 116L47 115z"/>
<path style="fill:#9373d2; stroke:none;" d="M51.3333 115.667L51.6667 116.333L51.3333 115.667z"/>
<path style="fill:#1b1795; stroke:none;" d="M54.3333 115.667L54.6667 116.333L54.3333 115.667M84 115L84 116L88 117L84 115z"/>
<path style="fill:#9373d2; stroke:none;" d="M90.3333 115.667L90.6667 116.333L90.3333 115.667z"/>
<path style="fill:#1b1795; stroke:none;" d="M120 115L121 116L120 115z"/>
<path style="fill:#9373d2; stroke:none;" d="M125.333 115.667L125.667 116.333L125.333 115.667M127.333 115.667L127.667 116.333L127.333 115.667M164.333 115.667L164.667 116.333L164.333 115.667M201.333 115.667L201.667 116.333L201.333 115.667M9 116L11 118L11 116L9 116M18 116L18 117L22 117L18 116z"/>
<path style="fill:#1b1795; stroke:none;" d="M45 116L47 118L45 116z"/>
<path style="fill:#9373d2; stroke:none;" d="M46 116L46 117L50 117L46 116M55 116L55 117L59 117L55 116z"/>
<path style="fill:#1b1795; stroke:none;" d="M82 116L84 118L82 116z"/>
<path style="fill:#9373d2; stroke:none;" d="M83.6667 116.333L84.3333 116.667L83.6667 116.333M92 116L92 117L96 117L92 116M120.667 116.333L121.333 116.667L120.667 116.333M123 116L124 117L123 116M129 116L129 117L133 117L129 116z"/>
<path style="fill:#1b1795; stroke:none;" d="M156 116L157 117L156 116z"/>
<path style="fill:#9373d2; stroke:none;" d="M157 116L160 119L160 116L157 116M166 116L166 117L170 117L166 116M194 116L194 118L196 116L194 116M203 116L203 117L207 117L203 116z"/>
<path style="fill:#1b1795; stroke:none;" d="M9 117L10 118L9 117M58 117L59 118L58 117M95 117L96 118L95 117M120 117L121 118L120 117M169 117L170 118L169 117M11 118L13 122L11 118M19 118L19 124L20 124L19 118M47.3333 118.667L47.6667 119.333L47.3333 118.667z"/>
<path style="fill:#9373d2; stroke:none;" d="M48 118L49 119L48 118M56 118L57 119L56 118M85 118L86 119L85 118M93 118L94 119L93 118M122 118L123 119L122 118M130 118L131 119L130 118z"/>
<path style="fill:#1b1795; stroke:none;" d="M158 118L159 119L158 118M167 118L167 124L168 124L167 118M195 118L196 119L195 118z"/>
<path style="fill:#9373d2; stroke:none;" d="M196 118L197 119L196 118z"/>
<path style="fill:#1b1795; stroke:none;" d="M204 118L205 119L204 118z"/>
<path style="fill:#9373d2; stroke:none;" d="M216 118L217 119L216 118z"/>
<path style="fill:#f40a0b; stroke:none;" d="M474 137L474 118L275 118L233 118C229.071 118 220.85 116.456 217.603 119.028C214.776 121.267 215.605 129.755 216.148 132.941C217.175 138.967 226.509 137 231 137L277 137L474 137z"/>
<path style="fill:#9373d2; stroke:none;" d="M13.3333 119.667L13.6667 120.333L13.3333 119.667z"/>
<path style="fill:#1b1795; stroke:none;" d="M49 119L48 123L49 123L49 119M55 119L56 123L57 123L55 119M86 119L86 126L91 123L86 125L86 119z"/>
<path style="fill:#9373d2; stroke:none;" d="M87.3333 119.667L87.6667 120.333L87.3333 119.667z"/>
<path style="fill:#1b1795; stroke:none;" d="M92 119L92 122L93 122L94 119L92 119M122 119L121 124C123.214 122.45 124.114 121.003 122 119M129 119L130 124L131 124L132 119L129 119M160 119L160 122L161 122L160 119z"/>
<path style="fill:#9373d2; stroke:none;" d="M165 119L166 120L165 119z"/>
<path style="fill:#1b1795; stroke:none;" d="M197 119L195 124L197 119z"/>
<path style="fill:#9373d2; stroke:none;" d="M202.333 119.667L202.667 120.333L202.333 119.667z"/>
<path style="fill:#1b1795; stroke:none;" d="M203 119L204 124L205 124L203 119z"/>
<path style="fill:#9373d2; stroke:none;" d="M50 120L51 121L50 120M124 120L125 121L124 120M15 121L13 124L15 122L16 122L18 124L15 121M18 121L19 122L18 121M52 121L50 124L54 123L52 121M55 121L56 122L55 121M89 121L90 122L89 121M125 122L125 123L128 123L125 122M163 121L161 124L163 122L164 122L168 125L168 124L163 121M199 122L199 123L205 125L205 124L201 121L199 122M12 122L13 123L12 122z"/>
<path style="fill:#1b1795; stroke:none;" d="M14 124L17 124L16 122L14 124z"/>
<path style="fill:#9373d2; stroke:none;" d="M49 122L50 123L49 122z"/>
<path style="fill:#1b1795; stroke:none;" d="M52 122L53 123L52 122z"/>
<path style="fill:#9373d2; stroke:none;" d="M86 122L87 123L86 122M88 122L89 123L88 122M90 122L91 123L90 122z"/>
<path style="fill:#1b1795; stroke:none;" d="M93.3333 122.667L93.6667 123.333L93.3333 122.667z"/>
<path style="fill:#9373d2; stroke:none;" d="M123 122L124 123L123 122z"/>
<path style="fill:#1b1795; stroke:none;" d="M126 122L127 123L126 122z"/>
<path style="fill:#9373d2; stroke:none;" d="M160 122L161 123L160 122z"/>
<path style="fill:#1b1795; stroke:none;" d="M163 122L164 123L163 122M193 122L194 123L193 122z"/>
<path style="fill:#9373d2; stroke:none;" d="M197 122L198 123L197 122z"/>
<path style="fill:#1b1795; stroke:none;" d="M200 122L201 123L200 122z"/>
<path style="fill:#9373d2; stroke:none;" d="M203 122L204 123L203 122z"/>
<path style="fill:#1b1795; stroke:none;" d="M51 123L52 124L51 123M54 123L55 124L54 123z"/>
<path style="fill:#9373d2; stroke:none;" d="M56 123L55 125L57 125L56 123M87 123L88 124L87 123M91 123L92 124L91 123M124 123L125 124L124 123M128 123L131 125L131 124L128 123z"/>
<path style="fill:#1b1795; stroke:none;" d="M159 123L159 126L160 126L159 123M162 123L163 124L162 123M164 123L165 124L164 123z"/>
<path style="fill:#9373d2; stroke:none;" d="M198 123L199 124L198 123z"/>
<path style="fill:#1b1795; stroke:none;" d="M201 123L202 124L201 123z"/>
<path style="fill:#9373d2; stroke:none;" d="M11.6667 124.333L12.3333 124.667L11.6667 124.333M18.6667 124.333L19.3333 124.667L18.6667 124.333z"/>
<path style="fill:#1b1795; stroke:none;" d="M48.3333 124.667L48.6667 125.333L48.3333 124.667z"/>
<path style="fill:#9373d2; stroke:none;" d="M49 124L50 125L49 124M86 124L87 125L86 124M92.6667 124.333L93.3333 124.667L92.6667 124.333M122 124L122 126L124 124L122 124z"/>
<path style="fill:#1b1795; stroke:none;" d="M128 124L129 125L128 124z"/>
<path style="fill:#9373d2; stroke:none;" d="M160 124L161 125L160 124z"/>
<path style="fill:#1b1795; stroke:none;" d="M165 124L166 125L165 124z"/>
<path style="fill:#9373d2; stroke:none;" d="M196 124L196 126L198 124L196 124z"/>
<path style="fill:#1b1795; stroke:none;" d="M202 124L203 125L202 124M11.6667 125.333L12.3333 125.667L11.6667 125.333M56 125L57 126L56 125z"/>
<path style="fill:#9373d2; stroke:none;" d="M85 125L86 126L85 125z"/>
<path style="fill:#1b1795; stroke:none;" d="M93 125L94 126L93 125M130 125L131 126L130 125M167 125L168 126L167 125M204 125L205 126L204 125M87 126L88 127L87 126M202 126L203 127L202 126M12 127L13 128L12 127z"/>
<path style="fill:#9373d2; stroke:none;" d="M216 136L217 137L216 136M288 136L289 137L288 136z"/>
<path style="fill:#faf5f6; stroke:none;" d="M0 137L0 157L474 157L474 137L0 137z"/>
<path style="fill:#9373d2; stroke:none;" d="M0 157L0 158L474 158C463.02 153.393 443.944 157 432 157L336 157L0 157z"/>
<path style="fill:#f40a0b; stroke:none;" d="M0 158L0 176L474 176L474 158L0 158z"/>
<path style="fill:#faf5f6; stroke:none;" d="M0 176L0 197L474 197L474 176L0 176z"/>
<path style="fill:#9373d2; stroke:none;" d="M54 196L54 197L57 197L54 196M102 196L102 197L105 197L102 196M214 196L214 197L217 197L214 196M242 196L243 197L242 196M262.667 196.333L263.333 196.667L262.667 196.333M266 196L267 197L266 196M358 196L359 197L358 196M374 196L374 197L378 197L374 196M422.667 196.333L423.333 196.667L422.667 196.333M426 196L427 197L426 196M445 196L445 197L451 197L445 196M466 196L467 197L466 196z"/>
<path style="fill:#f40a0b; stroke:none;" d="M0 197L0 215L474 215L474 197L0 197z"/>
<path style="fill:#9373d2; stroke:none;" d="M0 215L0 216L474 216C463.02 211.393 443.944 215 432 215L336 215L0 215z"/>
<path style="fill:#faf5f6; stroke:none;" d="M0 216L0 236L474 236L474 216L0 216z"/>
<path style="fill:#f40a0b; stroke:none;" d="M0 236L0 255L474 255L474 236L0 236z"/>
</svg>
